<?xml version="1.0" encoding="utf-8"?>
<!-- Generator: Adobe Illustrator 27.0.1, SVG Export Plug-In . SVG Version: 6.00 Build 0)  -->
<svg version="1.1" id="Layer_1" xmlns="http://www.w3.org/2000/svg" xmlns:xlink="http://www.w3.org/1999/xlink" x="0px" y="0px"
	 viewBox="0 0 90 90" style="enable-background:new 0 0 90 90;" xml:space="preserve">
<g>
	<g>
		<path d="M15.92,55.84c0-3.11,0.01-6.21,0.01-9.32c0,0-0.03,0.04-0.03,0.04c0.37,0.02,0.74,0.04,1.11,0.04c8.4,0,16.8,0,25.2,0
			c0.3,0,0.59,0,1.13,0c-1.6,1.6-3.02,3.01-4.43,4.43c-0.71,0.72-0.77,1.4-0.2,1.94c0.52,0.5,1.22,0.42,1.89-0.24
			c2.09-2.08,4.18-4.17,6.26-6.26c0.78-0.78,0.78-1.35,0.01-2.13c-2.08-2.1-4.17-4.18-6.26-6.26c-0.71-0.7-1.42-0.76-1.95-0.2
			c-0.52,0.55-0.44,1.19,0.24,1.88c1.27,1.28,2.55,2.55,3.83,3.83c0.15,0.15,0.26,0.32,0.45,0.56c-0.32,0.02-0.52,0.04-0.72,0.04
			c-8.63,0-17.26,0-25.88,0c-0.23,0-0.45-0.04-0.68-0.07c0,0,0.02,0.01,0.02,0.01c0-3.11,0.01-6.21,0.01-9.32l-0.03,0.03
			c3.09,0.01,6.19,0.01,9.28,0.02c0.77,0,1.55,0.02,2.32-0.02c0.67-0.03,1.06-0.45,1.11-1.09c0.05-0.65-0.31-1.09-0.95-1.24
			c-0.3-0.07-0.63-0.06-0.94-0.06c-3.61-0.02-7.22-0.03-10.82-0.05l0.02,0.02c0-2.95,0-5.9,0-8.92c5.11,0,10.22,0,15.46,0
			c0,0.28,0,0.58,0,0.89c0,2.95,0,5.91,0,8.86c0,1.27,0.36,1.62,1.64,1.62c3.15,0,6.31,0.01,9.46,0c1.2,0,1.58-0.39,1.59-1.61
			c0.01-2.92,0-5.85,0-8.77c0-0.31,0-0.62,0-0.99c5.18,0,10.29,0,15.46,0c0,14.53,0,29.05,0,43.61c-14.54,0-29.03,0-43.61,0
			c0-2.98,0-5.94,0-8.91l-0.03,0.04c0.14,0.02,0.28,0.06,0.42,0.06c3.61,0,7.22,0,10.83,0c0.14,0,0.29-0.01,0.43-0.03
			c0.67-0.1,1.03-0.52,1.03-1.17c0-0.65-0.38-1.07-1.04-1.17c-0.28-0.04-0.57-0.04-0.86-0.04c-3.27,0-6.53,0-9.8-0.01
			c-0.34,0-0.68-0.05-1.02-0.08L15.92,55.84z"/>
		<path d="M62.08,44.98c0.89,0,1.75,0,2.6,0c4.24,0,8.48,0.01,12.72-0.01c0.56,0,0.87,0.17,1.17,0.64c2.63,4.1,5.29,8.18,7.92,12.27
			c0.2,0.32,0.38,0.73,0.38,1.1c0.02,6.53,0.02,13.07,0.01,19.6c0,0.14-0.03,0.28-0.05,0.49c-1.6,0-3.19,0-4.85,0
			c-0.16-2.89-1.29-5.3-3.63-7.07c-1.66-1.26-3.55-1.85-5.62-1.77c-4.84,0.21-7.89,3.28-8.74,8.85c-0.6,0-1.22,0-1.91,0
			C62.08,67.76,62.08,56.44,62.08,44.98z M65.31,56.68c5.63,0,11.2,0,16.87,0c-0.18-0.3-0.3-0.52-0.44-0.73
			c-1.6-2.48-3.22-4.94-4.79-7.44c-0.32-0.51-0.68-0.66-1.25-0.65c-3.18,0.02-6.36,0.01-9.54,0.01c-0.27,0-0.54,0.03-0.84,0.05
			C65.31,50.87,65.31,53.73,65.31,56.68z"/>
		<path d="M86.87,15.71c0.03,6.31-5.07,11.43-11.39,11.44c-6.34,0.01-11.43-5.04-11.44-11.38C64.02,9.44,69.08,4.34,75.42,4.32
			C81.74,4.3,86.84,9.38,86.87,15.71z M76.65,11.74c0-0.66,0-1.32,0-1.98c-0.01-0.98-0.47-1.55-1.23-1.53
			c-0.73,0.02-1.17,0.57-1.18,1.5c-0.01,1.29,0.02,2.58-0.02,3.87c-0.01,0.4-0.13,0.83-0.32,1.19c-0.63,1.19,0.03,2.68,1.34,2.69
			c0.81,0.01,1.42,0.33,2.05,0.7c0.6,0.34,1.18,0.7,1.79,1.03c0.75,0.4,1.46,0.24,1.79-0.38c0.32-0.59,0.1-1.26-0.57-1.68
			c-0.78-0.48-1.57-0.94-2.38-1.38c-0.9-0.49-1.28-1.23-1.27-2.23C76.66,12.95,76.65,12.34,76.65,11.74z"/>
		<path d="M20.76,79.1c-1.64,0-3.21,0-4.83,0c0-3.15,0-6.26,0-9.44c14.5,0,29.01,0,43.59,0c0,3.11,0,6.24,0,9.45
			c-0.32,0.01-0.63,0.04-0.94,0.04c-6.31,0-12.61-0.01-18.92,0.02c-0.74,0-1.01-0.15-1.07-0.97c-0.31-4.39-4.18-7.87-8.75-7.98
			c-4.43-0.1-8.45,3.35-8.95,7.68C20.85,78.28,20.81,78.67,20.76,79.1z"/>
		<path d="M66.47,79.14c0-3.6,2.88-6.5,6.49-6.52c3.61-0.03,6.59,2.93,6.58,6.54c-0.01,3.61-2.98,6.55-6.6,6.52
			C69.33,85.64,66.47,82.75,66.47,79.14z M69.18,79.14c-0.01,2.12,1.69,3.84,3.8,3.85c2.09,0.01,3.83-1.72,3.84-3.83
			c0.01-2.11-1.7-3.84-3.81-3.85C70.91,75.3,69.19,77.02,69.18,79.14z"/>
		<path d="M36.26,79.18c-0.02,3.61-2.9,6.49-6.51,6.5c-3.62,0.01-6.59-2.95-6.56-6.56c0.03-3.59,2.94-6.49,6.53-6.5
			C33.36,72.6,36.28,75.54,36.26,79.18z M25.91,79.18c0.02,2.09,1.78,3.83,3.87,3.81c2.09-0.02,3.83-1.79,3.81-3.87
			c-0.02-2.1-1.78-3.83-3.87-3.81C27.62,75.33,25.89,77.09,25.91,79.18z"/>
		<path d="M41.61,32.45c-2.6,0-5.14,0-7.75,0c0-2.96,0-5.92,0-8.94c2.57,0,5.13,0,7.75,0C41.61,26.47,41.61,29.4,41.61,32.45z"/>
		<path d="M15.93,34.83c-3.9,0.02-7.8,0.04-11.69,0.04c-0.67,0-1.06-0.42-1.11-1.08c-0.05-0.66,0.29-1.1,0.93-1.25
			c0.3-0.07,0.63-0.06,0.94-0.06c3.64-0.01,7.28-0.02,10.92-0.03c0,0-0.02-0.02-0.02-0.02c0,0.81,0,1.62,0,2.43L15.93,34.83z"/>
		<path d="M15.93,46.52c-0.62,0.03-1.25,0.08-1.87,0.08c-3.03,0.01-6.06,0-9.09,0c-0.29,0-0.57,0.01-0.86-0.04
			c-0.62-0.1-0.96-0.5-0.99-1.11c-0.03-0.61,0.28-1.05,0.89-1.19c0.3-0.07,0.62-0.07,0.94-0.07c3.32,0,6.63,0,9.95-0.01
			c0.34,0,0.68-0.03,1.02-0.05c0,0-0.02-0.01-0.02-0.01c0,0.81,0,1.62,0,2.43C15.9,46.56,15.93,46.52,15.93,46.52z"/>
		<path d="M15.93,58.22c-0.25,0.03-0.5,0.1-0.75,0.1c-3.49,0.01-6.98,0-10.47,0c-0.2,0-0.4,0-0.6-0.04
			c-0.62-0.1-0.97-0.49-0.99-1.11c-0.02-0.66,0.32-1.09,0.97-1.21c0.31-0.06,0.63-0.05,0.94-0.05c3.29,0,6.58,0,9.86-0.01
			c0.34,0,0.68-0.05,1.02-0.07c0,0-0.02-0.01-0.02-0.01c0,0.81,0,1.62,0,2.43L15.93,58.22z"/>
		<path d="M73.03,80.57c-0.77,0.02-1.41-0.6-1.43-1.39c-0.02-0.79,0.59-1.44,1.36-1.46c0.76-0.02,1.43,0.62,1.44,1.39
			C74.42,79.88,73.8,80.55,73.03,80.57z"/>
		<path d="M31.16,79.14c0,0.76-0.66,1.43-1.42,1.43c-0.75,0-1.43-0.66-1.43-1.42c0-0.75,0.66-1.43,1.42-1.43
			C30.49,77.72,31.16,78.39,31.16,79.14z"/>
	</g>
</g>
</svg>
