<?xml version="1.0" encoding="utf-8"?>
<!-- Generator: Adobe Illustrator 27.0.1, SVG Export Plug-In . SVG Version: 6.00 Build 0)  -->
<svg version="1.1" id="Layer_1" xmlns="http://www.w3.org/2000/svg" xmlns:xlink="http://www.w3.org/1999/xlink" x="0px" y="0px"
	 viewBox="0 0 90 90" style="enable-background:new 0 0 90 90;" xml:space="preserve">
<g>
	<g>
		<path d="M-420.77-101.25c0-3.11,0.01-6.21,0.01-9.32c0,0-0.03,0.04-0.03,0.04c0.37,0.02,0.74,0.04,1.11,0.04c8.4,0,16.8,0,25.2,0
			c0.3,0,0.59,0,1.13,0c-1.6,1.6-3.02,3.01-4.43,4.43c-0.71,0.72-0.77,1.4-0.2,1.94c0.52,0.5,1.22,0.42,1.89-0.24
			c2.09-2.08,4.18-4.17,6.26-6.26c0.78-0.78,0.78-1.35,0.01-2.13c-2.08-2.1-4.17-4.18-6.26-6.26c-0.71-0.7-1.42-0.76-1.95-0.2
			c-0.52,0.55-0.44,1.19,0.24,1.88c1.27,1.28,2.55,2.55,3.83,3.83c0.15,0.15,0.26,0.32,0.45,0.56c-0.32,0.02-0.52,0.04-0.72,0.04
			c-8.63,0-17.26,0-25.88,0c-0.23,0-0.45-0.04-0.68-0.07c0,0,0.02,0.01,0.02,0.01c0-3.11,0.01-6.21,0.01-9.32l-0.03,0.03
			c3.09,0.01,6.19,0.01,9.28,0.02c0.77,0,1.55,0.02,2.32-0.02c0.67-0.03,1.06-0.45,1.11-1.09c0.05-0.65-0.31-1.09-0.95-1.24
			c-0.3-0.07-0.63-0.06-0.94-0.06c-3.61-0.02-7.22-0.03-10.82-0.05l0.02,0.02c0-2.95,0-5.9,0-8.92c5.11,0,10.22,0,15.46,0
			c0,0.28,0,0.58,0,0.89c0,2.95,0,5.91,0,8.86c0,1.27,0.36,1.62,1.64,1.62c3.15,0,6.31,0.01,9.46,0c1.2,0,1.58-0.39,1.59-1.61
			c0.01-2.92,0-5.85,0-8.77c0-0.31,0-0.62,0-0.99c5.18,0,10.29,0,15.46,0c0,14.53,0,29.05,0,43.61c-14.54,0-29.03,0-43.61,0
			c0-2.98,0-5.94,0-8.91l-0.03,0.04c0.14,0.02,0.28,0.06,0.42,0.06c3.61,0,7.22,0,10.83,0c0.14,0,0.29-0.01,0.43-0.03
			c0.67-0.1,1.03-0.52,1.03-1.17c0-0.65-0.38-1.07-1.04-1.17c-0.28-0.04-0.57-0.04-0.86-0.04c-3.27,0-6.53,0-9.8-0.01
			c-0.34,0-0.68-0.05-1.02-0.08L-420.77-101.25z"/>
		<path d="M-374.62-112.12c0.89,0,1.75,0,2.6,0c4.24,0,8.48,0.01,12.72-0.01c0.56,0,0.87,0.17,1.17,0.64
			c2.63,4.1,5.29,8.18,7.92,12.27c0.2,0.32,0.38,0.73,0.38,1.1c0.02,6.53,0.02,13.07,0.01,19.6c0,0.14-0.03,0.28-0.05,0.49
			c-1.6,0-3.19,0-4.85,0c-0.16-2.89-1.29-5.3-3.63-7.07c-1.66-1.26-3.55-1.85-5.62-1.77c-4.84,0.21-7.89,3.28-8.74,8.85
			c-0.6,0-1.22,0-1.91,0C-374.62-89.33-374.62-100.66-374.62-112.12z M-371.38-100.42c5.63,0,11.2,0,16.87,0
			c-0.18-0.3-0.3-0.52-0.44-0.73c-1.6-2.48-3.22-4.94-4.79-7.44c-0.32-0.51-0.68-0.66-1.25-0.65c-3.18,0.02-6.36,0.01-9.54,0.01
			c-0.27,0-0.54,0.03-0.84,0.05C-371.38-106.23-371.38-103.37-371.38-100.42z"/>
		<path d="M-349.82-141.39c0.03,6.31-5.07,11.43-11.39,11.44c-6.34,0.01-11.43-5.04-11.44-11.38c-0.02-6.33,5.05-11.43,11.38-11.45
			C-354.95-152.79-349.85-147.72-349.82-141.39z M-360.05-145.35c0-0.66,0-1.32,0-1.98c-0.01-0.98-0.47-1.55-1.23-1.53
			c-0.73,0.02-1.17,0.57-1.18,1.5c-0.01,1.29,0.02,2.58-0.02,3.87c-0.01,0.4-0.13,0.83-0.32,1.19c-0.63,1.19,0.03,2.68,1.34,2.69
			c0.81,0.01,1.42,0.33,2.05,0.7c0.6,0.34,1.18,0.7,1.79,1.03c0.75,0.4,1.46,0.24,1.79-0.38c0.32-0.59,0.1-1.26-0.57-1.68
			c-0.78-0.48-1.57-0.94-2.38-1.38c-0.9-0.49-1.28-1.23-1.27-2.23C-360.04-144.15-360.05-144.75-360.05-145.35z"/>
		<path d="M-415.93-78c-1.64,0-3.21,0-4.83,0c0-3.15,0-6.26,0-9.44c14.5,0,29.01,0,43.59,0c0,3.11,0,6.24,0,9.45
			c-0.32,0.01-0.63,0.04-0.94,0.04c-6.31,0-12.61-0.01-18.92,0.02c-0.74,0-1.01-0.15-1.07-0.97c-0.31-4.39-4.18-7.87-8.75-7.98
			c-4.43-0.1-8.45,3.35-8.95,7.68C-415.85-78.82-415.89-78.42-415.93-78z"/>
		<path d="M-370.22-77.96c0-3.6,2.88-6.5,6.49-6.52c3.61-0.03,6.59,2.93,6.58,6.54c-0.01,3.61-2.98,6.55-6.6,6.52
			C-367.36-71.45-370.23-74.34-370.22-77.96z M-367.51-77.96c-0.01,2.12,1.69,3.84,3.8,3.85c2.09,0.01,3.83-1.72,3.84-3.83
			c0.01-2.11-1.7-3.84-3.81-3.85C-365.78-81.8-367.5-80.08-367.51-77.96z"/>
		<path d="M-400.43-77.92c-0.02,3.61-2.9,6.49-6.51,6.5c-3.62,0.01-6.59-2.95-6.56-6.56c0.03-3.59,2.94-6.49,6.53-6.5
			C-403.34-84.49-400.42-81.56-400.43-77.92z M-410.79-77.91c0.02,2.09,1.78,3.83,3.87,3.81c2.09-0.02,3.83-1.79,3.81-3.87
			c-0.02-2.1-1.78-3.83-3.87-3.81C-409.08-81.76-410.81-80-410.79-77.91z"/>
		<path d="M-395.09-124.65c-2.6,0-5.14,0-7.75,0c0-2.96,0-5.92,0-8.94c2.57,0,5.13,0,7.75,0
			C-395.09-130.63-395.09-127.69-395.09-124.65z"/>
		<path d="M-420.77-122.27c-3.9,0.02-7.8,0.04-11.69,0.04c-0.67,0-1.06-0.42-1.11-1.08c-0.05-0.66,0.29-1.1,0.93-1.25
			c0.3-0.07,0.63-0.06,0.94-0.06c3.64-0.01,7.28-0.02,10.92-0.03c0,0-0.02-0.02-0.02-0.02c0,0.81,0,1.62,0,2.43L-420.77-122.27z"/>
		<path d="M-420.77-110.57c-0.62,0.03-1.25,0.08-1.88,0.08c-3.03,0.01-6.06,0-9.09,0c-0.29,0-0.57,0.01-0.86-0.04
			c-0.62-0.1-0.96-0.5-0.99-1.11c-0.03-0.61,0.28-1.05,0.89-1.19c0.3-0.07,0.62-0.07,0.94-0.07c3.32,0,6.63,0,9.95-0.01
			c0.34,0,0.68-0.03,1.02-0.05c0,0-0.02-0.01-0.02-0.01c0,0.81,0,1.62,0,2.43C-420.8-110.53-420.77-110.57-420.77-110.57z"/>
		<path d="M-420.77-98.88c-0.25,0.03-0.5,0.1-0.75,0.1c-3.49,0.01-6.98,0-10.47,0c-0.2,0-0.4,0-0.6-0.04
			c-0.62-0.1-0.97-0.49-0.99-1.11c-0.02-0.66,0.32-1.09,0.97-1.21c0.31-0.06,0.63-0.05,0.94-0.05c3.29,0,6.58,0,9.86-0.01
			c0.34,0,0.68-0.05,1.02-0.07c0,0-0.02-0.01-0.02-0.01c0,0.81,0,1.62,0,2.43L-420.77-98.88z"/>
		<path d="M-363.66-76.52c-0.77,0.02-1.41-0.6-1.43-1.39c-0.02-0.79,0.59-1.44,1.36-1.46c0.76-0.02,1.43,0.62,1.44,1.39
			C-362.27-77.21-362.9-76.54-363.66-76.52z"/>
		<path d="M-405.53-77.95c0,0.76-0.66,1.43-1.42,1.43c-0.75,0-1.43-0.66-1.43-1.42c0-0.75,0.66-1.43,1.42-1.43
			C-406.2-79.37-405.53-78.71-405.53-77.95z"/>
	</g>
</g>
<g>
	<g>
		<path d="M209.87-69.41c2.39-2.39,4.65-4.66,6.94-6.9c0.16-0.16,0.57-0.15,0.85-0.11c6.25,1.1,11.9-0.23,16.66-4.46
			c5.44-4.84,7.58-11.02,6.17-18.15c-1.41-7.16-5.72-12.15-12.65-14.5c-11.48-3.89-23.21,3.25-25.25,15.2
			c-0.4,2.34-0.3,4.68,0.18,7.01c0.06,0.28-0.01,0.72-0.19,0.91c-2.19,2.26-4.42,4.49-6.79,6.89c-0.43-1.18-0.84-2.17-1.14-3.19
			c-0.16-0.57-0.44-0.85-0.99-1.02c-1.67-0.52-3.32-1.08-4.98-1.63c-1.16-0.38-1.42-0.73-1.42-1.93c0-2.7,0-5.39,0-8.09
			c0-1.2,0.26-1.54,1.42-1.93c1.68-0.56,3.36-1.13,5.06-1.66c0.49-0.15,0.72-0.41,0.9-0.89c0.58-1.55,1.22-3.08,1.9-4.6
			c0.21-0.46,0.26-0.8,0.02-1.26c-0.86-1.65-1.66-3.33-2.52-4.98c-0.42-0.81-0.29-1.45,0.35-2.08c1.96-1.93,3.91-3.88,5.84-5.84
			c0.66-0.67,1.33-0.79,2.16-0.35c1.62,0.86,3.26,1.67,4.87,2.55c0.46,0.25,0.8,0.2,1.26,0c1.48-0.67,2.99-1.3,4.51-1.87
			c0.47-0.18,0.75-0.38,0.91-0.89c0.54-1.75,1.14-3.48,1.72-5.22c0.37-1.09,0.72-1.34,1.89-1.34c2.72,0,5.45,0,8.17,0
			c1.17,0,1.5,0.24,1.87,1.36c0.57,1.71,1.11,3.43,1.73,5.13c0.12,0.34,0.48,0.68,0.81,0.84c1.56,0.71,3.14,1.37,4.74,2
			c0.32,0.12,0.78,0.15,1.07,0.01c1.65-0.8,3.26-1.67,4.89-2.51c0.99-0.51,1.42-0.45,2.22,0.33c1.95,1.94,3.9,3.88,5.85,5.83
			c0.79,0.79,0.85,1.22,0.35,2.22c-0.8,1.58-1.59,3.17-2.42,4.74c-0.25,0.48-0.25,0.85-0.02,1.36c0.67,1.48,1.28,2.99,1.87,4.51
			c0.18,0.46,0.39,0.74,0.9,0.9c1.75,0.54,3.48,1.15,5.22,1.71c0.89,0.29,1.28,0.84,1.27,1.78c-0.03,2.78-0.03,5.56,0,8.34
			c0.01,0.94-0.36,1.49-1.27,1.78c-1.77,0.56-3.54,1.15-5.29,1.78c-0.31,0.11-0.63,0.45-0.77,0.77c-0.69,1.57-1.34,3.16-1.95,4.76
			c-0.12,0.32-0.14,0.79,0.01,1.1c0.76,1.63,1.6,3.23,2.4,4.85c0.54,1.09,0.49,1.46-0.33,2.29c-1.92,1.93-3.85,3.86-5.78,5.78
			c-0.82,0.82-1.23,0.87-2.29,0.33c-1.58-0.8-3.15-1.63-4.76-2.39c-0.33-0.16-0.83-0.16-1.17-0.03c-1.6,0.61-3.18,1.28-4.75,1.97
			c-0.29,0.13-0.61,0.43-0.71,0.72c-0.62,1.75-1.2,3.52-1.77,5.29c-0.28,0.88-0.82,1.3-1.77,1.29c-2.81-0.03-5.62-0.02-8.43,0
			c-0.91,0.01-1.43-0.38-1.7-1.25c-0.53-1.69-1.15-3.36-1.66-5.06c-0.2-0.66-0.56-0.95-1.21-1.13
			C211.89-68.61,210.96-69.01,209.87-69.41z"/>
		<path d="M221.72-109.3c1.55,0.35,3.13,0.63,4.65,1.08c1.44,0.43,1.66,1.55,0.6,2.61c-2.03,2.03-4.06,4.05-6.12,6.04
			c-0.4,0.39-0.51,0.75-0.35,1.29c0.32,1.04,0.26,2.4,0.92,3.06c0.66,0.66,2.02,0.6,3.05,0.94c0.58,0.19,0.94,0.05,1.35-0.36
			c1.97-2,3.98-3.97,5.98-5.94c1.19-1.18,2.23-0.96,2.76,0.63c1.66,4.96,0.89,9.55-2.49,13.53c-3.39,3.98-7.81,5.46-12.96,4.62
			c-0.54-0.09-0.84,0.04-1.19,0.39c-5.59,5.61-11.18,11.2-16.79,16.79c-0.38,0.38-0.49,0.71-0.39,1.27
			c1.87,10.21-7.89,18.73-17.74,15.53c-0.22-0.07-0.44-0.14-0.65-0.23c-1.18-0.49-1.42-1.54-0.53-2.46c2-2.05,4.01-4.1,6.05-6.11
			c0.46-0.45,0.64-0.85,0.43-1.5c-0.28-0.84-0.4-1.73-0.66-2.58c-0.08-0.26-0.38-0.56-0.64-0.64c-0.87-0.28-1.78-0.43-2.66-0.69
			c-0.53-0.15-0.89-0.07-1.29,0.34c-1.99,2.03-4,4.03-6.01,6.03c-1.19,1.18-2.2,0.95-2.78-0.61c-3.32-9.06,3.77-18.78,13.41-18.39
			c0.54,0.02,1.11,0.03,1.62,0.2c0.81,0.27,1.3-0.01,1.86-0.58c5.49-5.54,11.01-11.05,16.54-16.55c0.38-0.37,0.51-0.69,0.41-1.26
			c-1.58-8.45,4.95-16.23,13.57-16.23C221.68-109.16,221.7-109.23,221.72-109.3z"/>
	</g>
</g>
<g>
	<g>
		<path d="M95.72-132.49c1.1,0.45,2.3,0.75,3.28,1.39c2.52,1.63,3.69,4.07,3.69,7.07c0,1.41,0,2.81,0,4.22c0,0.31,0,0.62,0,1.02
			c0.94,0,1.76,0,2.59,0c2.35,0,4.7-0.01,7.05,0.01c1,0.01,1.5,0.45,1.49,1.27c-0.01,0.65-0.31,1.11-0.97,1.23
			c-0.39,0.07-0.8,0.07-1.2,0.07c-15.03,0-30.05,0-45.08,0.02c-0.65,0-1.43,0.12-1.93,0.47c-0.44,0.31-0.8,1.05-0.8,1.6
			c-0.05,6.97-0.03,13.94-0.03,20.9c0,0.08,0.04,0.16,0.09,0.35c0.31,0,0.65,0,0.98,0c4.13,0,8.26-0.01,12.39,0
			c3.09,0.01,5.26,1.63,5.93,4.36c0.88,3.59-1.54,7-5.23,7.11c-4.33,0.12-8.66,0.04-12.99,0.05c-0.34,0-0.68,0-1.22,0
			c0.07,0.89-0.05,1.76,0.24,2.47c0.22,0.54,0.92,0.94,1.48,1.26c0.31,0.18,0.78,0.1,1.18,0.1c19.24,0,38.48,0,57.72,0
			c0.4,0,0.81-0.01,1.2-0.08c0.87-0.15,1.5-0.79,1.63-1.66c0.05-0.34,0.06-0.69,0.06-1.03c0-11.07,0-22.14,0-33.2
			c0-0.2,0-0.4-0.01-0.6c-0.08-1.36-0.83-2.11-2.19-2.13c-1.89-0.03-3.78-0.01-5.68-0.01c-0.29,0-0.58,0-0.86-0.04
			c-0.8-0.11-1.21-0.58-1.17-1.32c0.04-0.75,0.46-1.19,1.2-1.2c2.44-0.01,4.88-0.07,7.31,0.06c1.99,0.11,3.66,1.88,3.91,3.87
			c0.05,0.4,0.07,0.8,0.07,1.2c0,11.18,0.01,22.37,0,33.55c0,2.57-1.23,4.38-3.41,4.96c-0.65,0.17-1.36,0.2-2.04,0.2
			c-6.82,0.01-13.65,0.01-20.47,0.01c-0.37,0-0.74,0-1.25,0c0,0.43,0,0.79,0,1.14c0,6.91,0.01,13.82,0,20.73
			c-0.01,4-2.07,7.05-5.58,8.2c-0.88,0.29-1.85,0.43-2.78,0.44c-12.16,0.03-24.32,0.03-36.47,0.01c-4.6-0.01-8.03-3.3-8.3-7.91
			c-0.02-0.4-0.02-0.8-0.02-1.2c0-18.78,0-37.56,0-56.34c0-0.37-0.01-0.75,0.04-1.12c0.09-0.7,0.52-1.07,1.22-1.08
			c0.74-0.01,1.19,0.37,1.28,1.11c0.04,0.37,0.04,0.74,0.04,1.12c0,18.9,0.01,37.79-0.01,56.69c0,2.05,0.59,3.77,2.26,5.04
			c0.97,0.73,2.06,1.12,3.28,1.12c12.3,0.01,24.6,0.01,36.9,0c2.97,0,5.29-2.22,5.53-5.17c0.03-0.37,0.04-0.74,0.04-1.12
			c0-6.82,0-13.65,0-20.47c0-0.34,0-0.68,0-1.1c-0.61,0-1.17,0-1.89,0c0,0.3,0,0.63,0,0.96c0,3.5,0,7,0,10.49
			c0,0.29,0,0.57-0.03,0.86c-0.08,0.74-0.5,1.14-1.24,1.17c-0.72,0.03-1.2-0.42-1.29-1.21c-0.03-0.28-0.02-0.57-0.02-0.86
			c0-3.44,0-6.88,0-10.32c0-0.34,0-0.68,0-1.17c-0.43,0-0.78,0-1.14,0c-9.26,0-18.52,0.01-27.79-0.01c-0.74,0-1.51-0.03-2.2-0.25
			c-1.89-0.6-2.98-1.95-3.23-3.94c-0.05-0.37-0.05-0.74-0.05-1.12c0-11.1,0-22.19,0.01-33.29c0-0.63,0.03-1.27,0.19-1.87
			c0.57-2.14,2.37-3.39,4.79-3.39c9.41-0.01,18.81,0,28.22,0c0.37,0,0.73,0,1.17,0c0-1.96,0.02-3.82-0.01-5.67
			c-0.01-0.59-0.45-0.94-1.04-0.95c-2.09-0.02-4.19-0.03-6.28,0.01c-0.19,0-0.47,0.26-0.56,0.47c-0.25,0.58-0.41,1.19-0.62,1.78
			c-0.38,1.07-1.15,1.64-2.27,1.64c-5.79,0.01-11.58,0.02-17.38,0c-1.21,0-1.91-0.55-2.32-1.69c-0.26-0.72-0.51-1.46-0.77-2.23
			c-2.23,0-4.43-0.01-6.64,0.01c-0.67,0.01-1.05,0.41-1.11,1.08c-0.03,0.28-0.02,0.57-0.02,0.86c0,23.37,0,46.74,0,70.11
			c0,1.72,0.2,1.92,1.93,1.92c11.79,0,23.57,0,35.36,0c1.49,0,1.76-0.26,1.76-1.75c0-1.06-0.02-2.12,0.01-3.18
			c0.02-0.99,0.48-1.48,1.29-1.48c0.81,0,1.26,0.5,1.28,1.49c0.02,1.23,0.03,2.47,0,3.7c-0.07,2.31-1.6,3.79-3.9,3.79
			c-12.13,0.01-24.26,0.01-36.39,0c-2.31,0-3.83-1.48-3.92-3.78c-0.01-0.23,0-0.46,0-0.69c0-23.4,0-46.8,0.01-70.19
			c0-0.6,0.01-1.22,0.15-1.79c0.38-1.52,1.81-2.65,3.41-2.68c2.32-0.04,4.65-0.02,6.97-0.01c1.06,0.01,1.79,0.52,2.17,1.51
			c0.02,0.05,0.05,0.1,0.07,0.16c0.27,0.72,0.33,1.76,0.85,2.09c0.6,0.38,1.6,0.15,2.42,0.16c4.62,0.01,9.23-0.01,13.85,0.02
			c0.58,0,0.89-0.13,1.03-0.72c0.15-0.61,0.39-1.2,0.62-1.78c0.37-0.92,1.07-1.42,2.05-1.43c2.35-0.02,4.7-0.04,7.05,0
			c1.93,0.04,3.43,1.54,3.53,3.53c0.07,1.55,0.03,3.1,0.03,4.64c0,0.31,0,0.62,0,0.98c0.66,0,1.22,0,1.75,0
			c0-2.28,0.23-4.53-0.06-6.72c-0.33-2.53-2.71-4.32-5.28-4.32c-12.36-0.02-24.72-0.02-37.08,0c-2.86,0.01-5.23,2.25-5.39,5.11
			c-0.12,2.32-0.05,4.64-0.06,6.97c0,0.32,0.01,0.63-0.02,0.95c-0.08,0.78-0.58,1.24-1.28,1.23c-0.7-0.01-1.25-0.48-1.25-1.26
			c0-2.89-0.19-5.82,0.14-8.68c0.39-3.36,2.52-5.55,5.76-6.59c0.35-0.11,0.69-0.22,1.04-0.33
			C69.57-132.49,82.64-132.49,95.72-132.49z M63.86-83.93c0.9,0,1.73,0,2.56,0c3.67,0,7.33,0.01,11-0.01
			c1.8-0.01,3.05-0.97,3.33-2.49c0.4-2.18-1.02-3.84-3.35-3.86c-4.3-0.03-8.59-0.01-12.89,0c-0.19,0-0.39,0.04-0.64,0.06
			C63.86-88.15,63.86-86.1,63.86-83.93z"/>
		<path d="M76.11-69.76c2.21,0,4.42-0.04,6.62,0.01c3.52,0.08,5.73,3.08,4.73,6.37c-0.6,1.95-1.97,3.1-3.97,3.32
			c-1.45,0.16-2.92,0.1-4.38,0.11c-3.1,0.01-6.19,0.02-9.29,0c-2.71-0.02-4.5-1.31-5.12-3.6c-0.82-3.03,1.15-5.87,4.28-6.16
			c0.14-0.01,0.29-0.03,0.43-0.03C71.63-69.76,73.87-69.76,76.11-69.76z M76.08-67.18C76.08-67.18,76.08-67.18,76.08-67.18
			c-2.18,0-4.36-0.02-6.53,0c-1.47,0.02-2.4,0.89-2.44,2.22c-0.04,1.38,0.85,2.38,2.35,2.39c4.44,0.04,8.88,0.03,13.33-0.01
			c0.53-0.01,1.12-0.28,1.55-0.6c0.75-0.55,0.98-1.62,0.64-2.49c-0.39-0.98-1.14-1.5-2.19-1.5C80.55-67.19,78.31-67.18,76.08-67.18z
			"/>
		<path d="M76.66-112.09c1.66,0,3.33-0.01,4.99,0c1.73,0.02,2.6,0.86,2.62,2.59c0.03,2.12,0.03,4.24,0,6.36
			c-0.02,1.63-0.87,2.54-2.49,2.55c-3.44,0.04-6.88,0.04-10.32,0c-1.62-0.02-2.47-0.93-2.49-2.55c-0.03-2.15-0.03-4.3,0-6.45
			c0.02-1.63,0.9-2.48,2.53-2.5C73.22-112.11,74.94-112.09,76.66-112.09z M81.64-103.14c0-2.17,0-4.21,0-6.29c-3.38,0-6.7,0-10.09,0
			c0,1.47,0,2.87,0,4.27c0,2.02,0,2.02,2.01,2.02C76.22-103.14,78.87-103.14,81.64-103.14z"/>
		<path d="M111.86-83.28c-1.27,0-2.5-0.02-3.73,0.02c-0.21,0.01-0.47,0.22-0.61,0.41c-0.15,0.19-0.19,0.47-0.29,0.71
			c-0.42,1.09-1.03,1.5-1.83,1.22c-0.79-0.28-1-1.01-0.59-2.1c1.06-2.81,2.13-5.62,3.2-8.43c0.1-0.27,0.2-0.54,0.3-0.8
			c0.26-0.68,0.73-1.11,1.48-1.11c0.74,0,1.21,0.42,1.47,1.11c0.95,2.55,1.92,5.09,2.88,7.63c0.25,0.67,0.52,1.33,0.75,2.01
			c0.24,0.71-0.06,1.38-0.68,1.65c-0.67,0.29-1.37,0.01-1.7-0.72C112.27-82.19,112.08-82.73,111.86-83.28z M108.66-85.89
			c0.78,0,1.45,0,2.23,0c-0.36-0.96-0.7-1.87-1.11-2.95C109.37-87.76,109.04-86.89,108.66-85.89z"/>
		<path d="M99.91-85.19c0,1,0.01,1.88,0,2.76c-0.02,1.05-0.45,1.57-1.29,1.56c-0.83-0.01-1.28-0.53-1.28-1.59
			c-0.01-3.09-0.01-6.19,0-9.28c0-1.18,0.44-1.63,1.61-1.64c1-0.01,2.01-0.03,3,0.09c2.22,0.26,3.65,1.98,3.58,4.19
			c-0.06,2.11-1.65,3.73-3.84,3.9C101.15-85.15,100.6-85.19,99.91-85.19z M99.96-87.77c1.09-0.02,2.25,0.34,2.8-0.86
			c0.19-0.4,0.12-1.12-0.13-1.49c-0.65-0.95-1.68-0.67-2.67-0.63C99.96-89.73,99.96-88.8,99.96-87.77z"/>
		<path d="M118.46-89.57c0.69-1.06,1.29-2,1.91-2.93c0.55-0.82,1.29-1.04,1.95-0.6c0.67,0.45,0.74,1.16,0.2,2.03
			c-0.08,0.12-0.15,0.25-0.24,0.36c-2.01,2.37-2.96,5.05-2.56,8.21c0.15,1.13-0.55,1.78-1.46,1.64c-0.74-0.11-1.08-0.6-1.09-1.32
			c-0.01-1.29,0.03-2.58-0.02-3.87c-0.02-0.46-0.16-0.96-0.39-1.35c-0.77-1.27-1.62-2.5-2.43-3.75c-0.52-0.81-0.43-1.52,0.21-1.97
			c0.66-0.46,1.41-0.25,1.96,0.57C117.14-91.6,117.75-90.65,118.46-89.57z"/>
		<path d="M106.9-106.68c0,0.37,0.03,0.75-0.01,1.11c-0.07,0.73-0.5,1.16-1.22,1.19c-0.73,0.03-1.23-0.38-1.31-1.09
			c-0.08-0.79-0.08-1.6,0-2.39c0.07-0.71,0.55-1.12,1.29-1.09c0.74,0.02,1.16,0.44,1.23,1.16
			C106.93-107.42,106.9-107.05,106.9-106.68z"/>
		<path d="M114.11-106.74c0-0.4-0.04-0.8,0.01-1.2c0.09-0.66,0.52-0.99,1.18-1.02c0.65-0.02,1.19,0.26,1.25,0.91
			c0.09,0.9,0.1,1.82,0.01,2.72c-0.07,0.69-0.64,1-1.32,0.94c-0.64-0.05-1.06-0.42-1.13-1.08c-0.04-0.42-0.01-0.85-0.01-1.28
			C114.1-106.74,114.1-106.74,114.11-106.74z"/>
		<path d="M95.35-106.7c0,0.37,0.03,0.75-0.01,1.11c-0.08,0.76-0.59,1.22-1.3,1.21c-0.72-0.01-1.21-0.47-1.25-1.24
			c-0.03-0.68-0.03-1.37,0-2.05c0.03-0.79,0.48-1.25,1.2-1.28c0.76-0.03,1.28,0.43,1.35,1.23C95.38-107.38,95.36-107.04,95.35-106.7
			C95.35-106.7,95.35-106.7,95.35-106.7z"/>
		<path d="M99.49-106.65c0-0.4-0.03-0.8,0.01-1.2c0.06-0.65,0.45-1.04,1.1-1.1c0.68-0.06,1.26,0.21,1.34,0.9
			c0.11,0.9,0.11,1.82,0.01,2.72c-0.07,0.69-0.64,0.99-1.32,0.94c-0.69-0.05-1.1-0.45-1.15-1.15
			C99.46-105.91,99.48-106.28,99.49-106.65C99.48-106.65,99.49-106.65,99.49-106.65z"/>
		<path d="M121.21-106.67c0,0.37,0.02,0.74,0,1.11c-0.05,0.74-0.48,1.15-1.21,1.18c-0.69,0.03-1.21-0.31-1.27-1
			c-0.08-0.85-0.09-1.71,0-2.55c0.08-0.73,0.62-1.06,1.35-1c0.7,0.06,1.08,0.47,1.13,1.16
			C121.23-107.42,121.21-107.05,121.21-106.67z"/>
	</g>
</g>
<g>
	<g>
		<path d="M-79.74-70.03c1.59-2.12,3.16-4.26,4.78-6.36c0.41-0.54,0.57-1.06,0.52-1.73c-0.13-1.88-0.19-3.76-0.29-5.85
			c0.8,0.72,1.47,1.32,2.13,1.93c0.21,0.19,0.4,0.43,0.63,0.58c1.69,1.08,2.29,2.61,2.09,4.58c-0.08,0.83-0.21,1.55-0.73,2.22
			c-1.58,2.03-3.12,4.1-4.68,6.14c-1.54,2.03-3.26,1.91-4.45-0.3C-79.74-69.23-79.74-69.63-79.74-70.03z"/>
		<path d="M-15.53-102.34c-1.55,2.66-0.48,5.12-0.27,7.55c0.22,2.5,0.61,4.99,0.94,7.58c-13.81,1.75-27.56,3.48-41.41,5.24
			c-0.19-1.44-0.38-2.82-0.56-4.2c-0.31-2.44-0.53-4.9-0.94-7.33c-0.19-1.09-0.76-2.1-1.23-3.34
			C-44.73-98.68-30.26-100.5-15.53-102.34z M-17.1-92.98c-1.74,0.22-3.19,0.4-4.64,0.59c-4.4,0.56-8.8,1.13-13.21,1.67
			c-0.73,0.09-1.01,0.43-0.92,1.14c0.12,0.88,0.24,1.76,0.34,2.64c0.16,1.47,0.29,1.58,1.78,1.39c2.22-0.28,4.43-0.56,6.65-0.84
			c3.44-0.44,6.87-0.9,10.31-1.32c0.82-0.1,1.07-0.48,0.94-1.27c-0.17-0.99-0.29-1.98-0.38-2.98
			C-16.29-92.72-16.62-93.07-17.1-92.98z M-36.14-86.09c-0.16-1.24-0.29-2.21-0.41-3.18c-0.12-1.03-0.29-1.2-1.31-1.07
			c-2.3,0.27-4.6,0.57-6.9,0.86c-3.52,0.45-7.04,0.9-10.57,1.33c-0.69,0.08-0.95,0.42-0.87,1.09c0.13,0.97,0.25,1.93,0.36,2.9
			c0.14,1.19,0.29,1.35,1.46,1.2c5.74-0.72,11.47-1.47,17.21-2.18C-36.35-85.23-36.03-85.58-36.14-86.09z"/>
		<path d="M-56.76-81.36c14.19-1.8,28.28-3.58,42.48-5.38c-0.16-1.36-0.31-2.68-0.47-4.01c-0.34-2.76-0.71-5.51-1.04-8.27
			c-0.28-2.31,1.28-4.37,3.54-4.72c2.23-0.35,4.35,1.12,4.8,3.33c0.46,2.27-0.89,4.41-3.14,4.98c-0.27,0.07-0.55,0.11-0.91,0.18
			c0.18,1.53,0.36,3.03,0.55,4.61c-0.37,0.09-0.72,0.19-1.07,0.27c-1.11,0.28-1.73,1.12-1.55,2.12c0.19,1.07,1.04,1.65,2.22,1.52
			c0.25-0.03,0.5-0.08,0.9-0.15c0.06,0.69,0.2,1.36,0.16,2.01c-0.07,0.9-0.7,1.47-1.73,1.62c-2.95,0.4-5.91,0.78-8.86,1.15
			c-6.14,0.78-12.27,1.55-18.41,2.32c-6.11,0.77-12.22,1.56-18.33,2.31c-1.8,0.22-2.46-0.33-2.69-2.13
			c-0.22-1.67-0.43-3.35-0.66-5.09c0.14-0.01,0.24-0.03,0.34-0.03c1.04-0.07,1.72-0.58,1.91-1.42c0.21-0.93-0.15-1.69-1.11-2.18
			c-2.01-1.03-4.03-2.06-6.06-3.05c-0.49-0.24-0.72-0.55-0.8-1.09c-0.33-2.23,1.13-4.36,3.33-4.79c2.32-0.45,4.59,0.95,4.97,3.24
			c0.44,2.6,0.7,5.22,1.04,7.83C-57.17-84.6-56.98-83.04-56.76-81.36z"/>
		<path d="M-10.88-94.77c1.24-0.29,2.3-0.86,3.11-1.87c0.13-0.16,0.53-0.23,0.75-0.16c0.56,0.17,0.98,0,1.42-0.33
			c1.06-0.78,2.14-1.54,3.21-2.3c1.4-0.99,2.95-1.02,4.24,0.12c0.62,0.55,1.19,1.28,1.5,2.04c1.35,3.31,1.69,6.76,1.18,10.29
			c-0.15,1.05-0.65,1.94-1.45,2.66c-2.18,1.99-4.36,3.98-6.51,6.01c-0.36,0.34-0.66,0.87-0.76,1.36c-0.57,2.6-1.06,5.22-1.59,7.82
			c-0.23,1.11-0.91,1.81-1.89,1.98c-0.87,0.15-1.89-0.24-2.25-1.07c-0.24-0.54-0.37-1.24-0.27-1.81c0.57-3.12,1.2-6.24,1.88-9.34
			c0.11-0.52,0.49-1.04,0.88-1.42c1.59-1.53,3.25-2.98,4.84-4.51c0.31-0.3,0.58-0.79,0.61-1.21c0.09-1.11,0.02-2.23,0.07-3.34
			c0.01-0.34,0.11-0.74,0.3-1.01c0.96-1.39,1.97-2.74,2.95-4.12c0.75-1.05,0.65-2.16-0.22-2.82c-0.9-0.67-2.09-0.45-2.79,0.68
			c-0.85,1.37-2.11,2.24-3.39,3.09c-0.25,0.17-0.6,0.31-0.88,0.27c-1.66-0.23-3.31-0.52-4.96-0.79
			C-10.88-94.61-10.88-94.69-10.88-94.77z"/>
		<path d="M-66.34-96.29c-0.41,1.06-0.77,2.01-1.17,3.06c-0.33-0.45-0.71-0.87-0.99-1.35c-0.47-0.82-0.85-1.69-1.33-2.5
			c-0.5-0.85-1.54-1.11-2.4-0.68c-0.86,0.43-1.31,1.44-0.86,2.33c1.06,2.09,2.21,4.13,3.3,6.2c0.14,0.26,0.23,0.58,0.2,0.87
			c-0.13,1.67,0.33,2.99,1.76,4.06c1.37,1.02,2.59,2.26,3.8,3.48c0.45,0.46,0.84,1.11,0.98,1.74c0.67,2.99,1.25,5.99,1.86,9
			c0.21,1.03,0.02,1.96-0.92,2.58c-0.78,0.52-1.68,0.62-2.41,0.02c-0.49-0.41-0.93-1.05-1.07-1.66c-0.6-2.56-1.04-5.16-1.61-7.73
			c-0.11-0.52-0.4-1.08-0.78-1.44c-2.01-1.92-4.05-3.81-6.13-5.65c-1.16-1.03-1.74-2.24-1.91-3.79c-0.33-3.17,0.07-6.23,1.12-9.21
			c0.74-2.1,2.4-3.33,4.3-3.14c0.4,0.04,0.89,0.18,1.16,0.45C-68.34-98.54-67.31-97.35-66.34-96.29z"/>
		<path d="M3.34-83.99c-0.09,2.01-0.13,3.8-0.27,5.58c-0.07,0.85,0.1,1.52,0.64,2.2c1.36,1.7,2.65,3.45,3.96,5.19
			c0.96,1.28,0.87,2.59-0.22,3.42c-1.11,0.85-2.41,0.57-3.41-0.74c-0.03-0.05-0.07-0.09-0.1-0.14c-1.49-1.96-2.95-3.95-4.49-5.88
			c-0.7-0.88-0.93-1.8-0.97-2.92c-0.06-1.68,0.37-2.95,1.79-3.96C1.34-81.97,2.22-82.96,3.34-83.99z"/>
		<path d="M-68.11-105.36c1.25,1.13,2.84,1.21,4.38,1.42c0.12,2.07-2.23,3.94-4.48,3.58c-1.68-0.26-3.01-1.49-3.39-3.12
			c-0.37-1.58,0.29-3.29,1.64-4.23c1.37-0.96,3.15-0.95,4.61-0.05c0.36,0.22,0.83,0.29,1.26,0.38c0.87,0.17,1.75,0.25,2.6,0.47
			c0.29,0.08,0.63,0.46,0.67,0.74c0.03,0.2-0.35,0.58-0.62,0.7c-2.03,0.86-4.11,0.9-6.21,0.28
			C-67.8-105.24-67.95-105.3-68.11-105.36z"/>
		<path d="M-5-106.16c1.64,0.46,3.13,1.12,4.75,0.61c-2.09-0.16-3.9-1.01-5.49-2.33c-0.47-0.38-1.19-0.89-0.78-1.51
			c0.22-0.32,1.11-0.23,1.7-0.26c0.27-0.01,0.57,0.1,0.83,0.21c0.95,0.41,1.88,0.57,2.95,0.52c2.22-0.11,4.03,1.8,4.02,4.03
			c-0.01,2.24-1.91,4.09-4.15,4.05c-2.26-0.04-4.05-1.93-3.97-4.2C-5.12-105.39-5.05-105.72-5-106.16z"/>
		<path d="M-59.11-86.97c0.04,1.48-1.08,2.15-2.19,1.62c-1.62-0.78-3.17-1.74-4.85-2.39c-2.56-0.98-4.33-2.62-5.26-5.22
			c-0.31-0.85-0.85-1.62-1.24-2.45c-0.39-0.81-0.14-1.6,0.59-1.99c0.72-0.38,1.52-0.15,1.96,0.67c0.79,1.46,1.52,2.95,2.32,4.4
			c0.21,0.37,0.56,0.73,0.93,0.93c2.21,1.15,4.45,2.22,6.65,3.39C-59.7-87.74-59.34-87.2-59.11-86.97z"/>
		<path d="M1.48-96.11c-0.09,0.18-0.19,0.52-0.38,0.79c-1.4,1.96-2.79,3.93-4.24,5.84c-0.3,0.39-0.85,0.7-1.34,0.81
			c-2.22,0.54-4.47,1.01-6.7,1.49c-1.01,0.22-1.78-0.18-1.96-1.01c-0.2-0.89,0.32-1.58,1.37-1.81c1.9-0.42,3.81-0.8,5.7-1.27
			c0.47-0.12,0.98-0.46,1.28-0.84c1.24-1.61,2.4-3.28,3.6-4.93c0.43-0.59,1-0.87,1.72-0.61C1.14-97.42,1.45-96.93,1.48-96.11z"/>
		<path d="M-56.03-77.11c0.04,0.31,0.06,0.54,0.1,0.89c-0.7,0.09-1.39,0.18-2.18,0.29c-0.05-0.29-0.1-0.55-0.16-0.88
			C-57.5-76.91-56.81-77-56.03-77.11z"/>
		<path d="M-11.67-82.71c0.02,0.37,0.04,0.61,0.06,0.9c-0.74,0.09-1.44,0.18-2.18,0.27c-0.04-0.31-0.06-0.55-0.1-0.88
			C-13.16-82.51-12.47-82.61-11.67-82.71z"/>
	</g>
</g>
<g>
	<g>
		<path d="M-121.87-81.36c-0.02,0.3-0.02,0.5-0.04,0.7c-0.21,1.66,0.38,2.98,1.84,3.75c1.56,0.83,3.18,1.55,4.82,2.23
			c4.33,1.78,8.59,3.66,12.18,6.77c3.24,2.8,4.27,6.34,3.53,10.45c-0.33,1.82-1.47,3.13-2.96,4.16c-2.41,1.67-5.15,2.46-7.97,3.04
			c-5.84,1.2-11.77,1.41-17.71,1.43c-5.62,0.02-11.24,0.04-16.82-0.73c-3.44-0.47-6.85-1.11-10.02-2.6
			c-2.4-1.13-4.48-2.67-5.22-5.37c-0.9-3.34-0.17-6.36,2.17-8.93c1.9-2.09,4.23-3.62,6.69-4.92c3.26-1.72,6.61-3.27,9.92-4.9
			c0.54-0.26,1.1-0.49,1.61-0.8c2.09-1.28,2.68-3.42,1.48-5.56c-0.44-0.79-1.02-1.52-1.58-2.25c-2.9-3.78-5.07-7.91-5.92-12.64
			c-0.84-4.65-0.82-9.26,1.22-13.64c2.45-5.24,6.68-8.05,12.37-8.77c3.06-0.39,6.08-0.18,8.97,0.96c5.46,2.15,8.39,6.36,9.47,11.96
			c1.08,5.57,0.07,10.88-2.29,15.97c-0.11,0.24-0.4,0.5-0.65,0.57c-0.88,0.25-1.78,0.45-2.68,0.6c-0.24,0.04-0.52-0.16-0.78-0.23
			c-0.87-0.25-1.73-0.6-2.62-0.7c-1.08-0.12-2.18-0.05-3.26-0.02c-2.62,0.07-4.69,2.18-4.68,4.76c0.01,2.58,2.08,4.66,4.71,4.72
			C-124.69-81.34-123.32-81.36-121.87-81.36z"/>
		<path d="M-148.84-96.36c0,1.35,0.02,2.7,0,4.04c-0.05,2.44-1.81,4.19-4.19,4.2c-2.4,0.01-4.24-1.79-4.26-4.23
			c-0.03-2.67-0.01-5.33,0-8c0.01-1.54,0.64-2.75,1.91-3.65c0.23-0.16,0.44-0.52,0.46-0.8c0.94-11.77,9.61-21.19,21.19-23.01
			c13.38-2.1,26.16,7.14,28.4,20.54c0.06,0.34,0.12,0.68,0.15,1.02c0.1,1.13,0.15,2.17,1.33,2.91c0.92,0.57,1.2,1.72,1.21,2.82
			c0.02,2.75,0.05,5.51,0,8.26c-0.05,3.04-3.03,4.97-5.84,3.81c-0.58-0.24-0.95-0.17-1.46,0.16c-3.01,1.98-6.4,2.86-9.94,3.29
			c-0.35,0.04-0.66,0.33-1,0.49c-0.63,0.3-1.23,0.75-1.89,0.84c-1.07,0.14-2.17,0.06-3.26,0.03c-1.35-0.03-2.36-1-2.44-2.29
			c-0.08-1.36,0.79-2.49,2.19-2.6c1.25-0.11,2.52-0.07,3.78-0.01c0.43,0.02,0.96,0.21,1.24,0.51c0.51,0.54,1.02,0.56,1.68,0.47
			c2.9-0.4,5.65-1.21,8.16-2.76c0.41-0.25,0.57-0.46,0.47-1.02c-0.16-0.83-0.12-1.71-0.12-2.57c-0.01-2.09,0.02-4.19-0.01-6.28
			c-0.02-1.61,0.56-2.88,1.9-3.83c0.21-0.15,0.36-0.56,0.34-0.84c-0.64-8.98-7.5-16.92-16.27-18.87
			c-12.14-2.7-23.6,4.99-25.77,17.28c-0.05,0.31-0.04,0.63-0.12,0.94c-0.19,0.79-0.08,1.35,0.69,1.86c0.97,0.65,1.44,1.7,1.46,2.88
			c0.03,1.46,0.01,2.92,0.01,4.39C-148.85-96.36-148.85-96.36-148.84-96.36z"/>
	</g>
</g>
<g>
	<g>
		<path d="M76.66,36.27c0,4.16-0.01,8.31,0,12.47c0.04,8.41-3.13,15.58-8.57,21.81c-5.88,6.73-13.07,11.51-21.67,14.12
			c-1.11,0.34-2.14,0.25-3.19-0.1C31.57,80.64,22.41,73.65,16.6,62.64c-2.23-4.22-3.26-8.78-3.26-13.57c0-9,0-18,0-27.01
			c0-2.12,1.04-3.14,3.15-3.2c8.14-0.22,15.59-2.49,21.92-7.76c1.54-1.29,2.85-2.9,4.08-4.5c1.51-1.95,3.6-2.01,4.99,0.03
			c3.19,4.67,7.72,7.59,12.87,9.65c4.27,1.71,8.73,2.55,13.33,2.6c1.87,0.02,2.97,1.14,2.97,3.03
			C76.66,26.7,76.66,31.48,76.66,36.27z M25.73,45.02C25.72,55.6,34.35,64.27,44.89,64.3c10.73,0.02,19.38-8.59,19.38-19.31
			c0-10.55-8.64-19.21-19.2-19.23C34.39,25.74,25.73,34.36,25.73,45.02z"/>
		<path d="M37.61,48.83c0.26-0.39,0.4-0.69,0.62-0.91c4.31-4.32,8.62-8.64,12.94-12.95c1.65-1.65,4.2-1.03,4.75,1.13
			c0.28,1.11-0.11,2.01-0.9,2.8c-2.76,2.75-5.51,5.51-8.27,8.26c-2.59,2.59-5.18,5.19-7.78,7.78c-1.75,1.74-3.76,1.42-4.87-0.79
			c-0.82-1.63-1.65-3.27-2.46-4.91c-0.78-1.59-0.33-3.18,1.09-3.9c1.46-0.75,3.01-0.15,3.84,1.47
			C36.88,47.39,37.17,47.97,37.61,48.83z"/>
	</g>
</g>
</svg>
